<svg xmlns="http://www.w3.org/2000/svg" width="632" height="57" fill="none"><path fill="#fff" d="M48.216 21.979c-4.86 0-8.91.61-12.15 1.831-3.155 1.221-5.371 2.973-6.65 5.256h36.961c-1.279-2.336-3.496-4.088-6.65-5.256-3.155-1.22-6.992-1.831-11.51-1.831Zm.64 34.879c-9.976 0-18.63-.903-25.963-2.708-7.333-1.805-13.003-4.38-17.01-7.724C1.961 43.028 0 38.966 0 34.242c0-4.778 1.961-8.84 5.883-12.184 4.007-3.398 9.635-5.972 16.882-7.724 7.333-1.805 15.944-2.708 25.835-2.708 14.835 0 26.431 2.07 34.787 6.212 8.441 4.087 12.662 10.246 12.662 18.474v1.036H28.392c.938 3.026 3.24 5.255 6.907 6.689 3.666 1.38 8.228 2.07 13.684 2.07 3.923 0 7.376-.371 10.36-1.115 2.984-.796 5.158-1.937 6.522-3.424H94.77c-2.387 4.99-7.673 8.786-15.858 11.388-8.186 2.6-18.204 3.901-30.056 3.901Zm49.184-1.036v-43.24h27.37v8.122c2.473-2.866 6.224-5.096 11.255-6.689 5.03-1.592 11.212-2.389 18.545-2.389 12.022 0 20.889 1.832 26.602 5.495 5.797 3.663 8.696 8.733 8.696 15.21v23.491h-27.369V38.064c0-4.937-1.364-8.68-4.093-11.228-2.643-2.548-7.247-3.822-13.812-3.822-6.395 0-11.298 1.247-14.708 3.742-3.411 2.496-5.116 6.291-5.116 11.388v17.678H98.04Zm94.775 0v-43.24h27.37v8.202c1.79-2.336 4.902-4.353 9.336-6.052 4.434-1.752 9.933-2.628 16.498-2.628h12.278v12.662h-13.429c-8.014 0-14.153 1.22-18.416 3.663-4.178 2.442-6.267 5.866-6.267 10.272v17.121h-27.37Zm113.307 1.036c-9.975 0-18.587-.903-25.834-2.708-7.162-1.805-12.704-4.406-16.626-7.804-3.922-3.398-5.883-7.432-5.883-12.104 0-4.725 1.961-8.76 5.883-12.104 3.922-3.398 9.464-6 16.626-7.804 7.247-1.805 15.859-2.708 25.834-2.708 9.976 0 18.545.903 25.707 2.708 7.248 1.805 12.79 4.406 16.626 7.804 3.923 3.344 5.884 7.38 5.884 12.104 0 4.672-1.961 8.706-5.884 12.104-3.836 3.398-9.378 5.999-16.626 7.804-7.162 1.805-15.731 2.708-25.707 2.708Zm0-11.388c5.713 0 10.53-.982 14.452-2.946 3.923-1.965 5.884-4.725 5.884-8.282 0-3.557-1.961-6.318-5.884-8.282-3.922-1.964-8.739-2.946-14.452-2.946-5.712 0-10.53.982-14.452 2.946-3.922 1.964-5.883 4.725-5.883 8.282 0 3.557 1.961 6.317 5.883 8.282 3.922 1.964 8.74 2.946 14.452 2.946Zm85.958 11.308c-11.681 0-20.42-1.832-26.218-5.495-5.713-3.716-8.569-8.786-8.569-15.21v-23.49h27.497V30.34c0 4.937 1.322 8.68 3.965 11.228s6.949 3.823 12.917 3.823c6.139 0 10.786-1.301 13.941-3.902 3.24-2.655 4.86-6.398 4.86-11.229V12.582h27.369v43.24h-27.369V47.7c-2.388 2.707-5.969 4.91-10.744 6.61-4.689 1.645-10.572 2.468-17.649 2.468Zm107.228-.956c-9.975 0-17.095-1.274-21.358-3.822-4.263-2.548-6.395-6.397-6.395-11.547V23.492h-21.23v-10.91h21.23V0h27.37v12.582h37.089v10.91h-37.089v16.802c0 1.752.724 2.973 2.174 3.663 1.449.637 3.751.956 6.906.956h28.009v10.91h-36.706Z"/><path fill="#fff" d="M584.168 21.979c-4.86 0-8.91.61-12.15 1.831-3.155 1.221-5.372 2.973-6.651 5.256h36.961c-1.278-2.336-3.495-4.088-6.65-5.256-3.155-1.22-6.992-1.831-11.51-1.831Zm.639 34.879c-9.976 0-18.63-.903-25.963-2.708-7.332-1.805-13.002-4.38-17.009-7.724-3.922-3.398-5.884-7.46-5.884-12.184 0-4.778 1.962-8.84 5.884-12.184 4.007-3.398 9.634-5.972 16.882-7.724 7.332-1.805 15.944-2.708 25.834-2.708 14.836 0 26.432 2.07 34.787 6.212C627.779 21.925 632 28.084 632 36.312v1.036h-67.656c.938 3.026 3.24 5.255 6.906 6.689 3.667 1.38 8.228 2.07 13.685 2.07 3.922 0 7.375-.371 10.359-1.115 2.985-.796 5.159-1.937 6.523-3.424h28.904c-2.387 4.99-7.674 8.786-15.859 11.388-8.185 2.6-18.203 3.901-30.055 3.901Z"/></svg>